HIERARCHY
ROOT Hips
{
	OFFSET 0.000000 0.000000 0.000000
	CHANNELS 6 Xposition Yposition Zposition Zrotation Yrotation Xrotation 
	JOINT LHipJoint
	{
		OFFSET 0.000000 0.000000 0.000000
		CHANNELS 3 Zrotation Yrotation Xrotation
		JOINT LeftUpLeg
		{
			OFFSET 1.363060 -1.794630 0.839290
			CHANNELS 3 Zrotation Yrotation Xrotation
			JOINT LeftLeg
			{
				OFFSET 2.448110 -6.726130 0.000000
				CHANNELS 3 Zrotation Yrotation Xrotation
				JOINT LeftFoot
				{
					OFFSET 2.562200 -7.039590 0.000000
					CHANNELS 3 Zrotation Yrotation Xrotation
					JOINT LeftToeBase
					{
						OFFSET 0.157640 -0.433110 2.322550
						CHANNELS 3 Zrotation Yrotation Xrotation
						End Site
						{
							OFFSET 0.000000 0.000000 0.000000
						}
					}
				}
			}
		}
	}
	JOINT RHipJoint
	{
		OFFSET 0.000000 0.000000 0.000000
		CHANNELS 3 Zrotation Yrotation Xrotation
		JOINT RightUpLeg
		{
			OFFSET -1.305520 -1.794630 0.839290
			CHANNELS 3 Zrotation Yrotation Xrotation
			JOINT RightLeg
			{
				OFFSET -2.542530 -6.985550 0.000000
				CHANNELS 3 Zrotation Yrotation Xrotation
				JOINT RightFoot
				{
					OFFSET -2.568260 -7.056230 0.000000
					CHANNELS 3 Zrotation Yrotation Xrotation
					JOINT RightToeBase
					{
						OFFSET -0.164730 -0.452590 2.363150
						CHANNELS 3 Zrotation Yrotation Xrotation
						End Site
						{
							OFFSET 0.000000 0.000000 0.000000
						}
					}
				}
			}
		}
	}
	JOINT LowerBack
	{
		OFFSET 0.000000 0.000000 0.000000
		CHANNELS 3 Zrotation Yrotation Xrotation
		JOINT Spine
		{
			OFFSET 0.028270 2.035590 -0.193380
			CHANNELS 3 Zrotation Yrotation Xrotation
			JOINT Spine1
			{
				OFFSET 0.056720 2.048850 -0.042750
				CHANNELS 3 Zrotation Yrotation Xrotation
				JOINT Neck
				{
					OFFSET 0.000000 0.000000 0.000000
					CHANNELS 3 Zrotation Yrotation Xrotation
					JOINT Neck1
					{
						OFFSET -0.054170 1.746240 0.172020
						CHANNELS 3 Zrotation Yrotation Xrotation
						JOINT Head
						{
							OFFSET 0.104070 1.761360 -0.123970
							CHANNELS 3 Zrotation Yrotation Xrotation
							End Site
							{
								OFFSET 0.000000 0.000000 0.000000
							}
						}
					}
				}
				JOINT LeftShoulder
				{
					OFFSET 0.000000 0.000000 0.000000
					CHANNELS 3 Zrotation Yrotation Xrotation
					JOINT LeftArm
					{
						OFFSET 3.362410 1.200890 -0.311210
						CHANNELS 3 Zrotation Yrotation Xrotation
						JOINT LeftForeArm
						{
							OFFSET 4.983000 -0.000000 -0.000000
							CHANNELS 3 Zrotation Yrotation Xrotation
							JOINT LeftHand
							{
								OFFSET 3.483560 -0.000000 -0.000000
								CHANNELS 3 Zrotation Yrotation Xrotation
								JOINT LeftFingerBase
								{
									OFFSET 0.000000 0.000000 0.000000
									CHANNELS 3 Zrotation Yrotation Xrotation
									JOINT LeftHandIndex1
									{
										OFFSET 0.715260 -0.000000 -0.000000
										CHANNELS 3 Zrotation Yrotation Xrotation
										End Site
										{
											OFFSET 0.000000 0.000000 0.000000
										}
									}
								}
								JOINT LThumb
								{
									OFFSET 0.000000 0.000000 0.000000
									CHANNELS 3 Zrotation Yrotation Xrotation
									End Site
									{
										OFFSET 0.000000 0.000000 0.000000
									}
								}
							}
						}
					}
				}
				JOINT RightShoulder
				{
					OFFSET 0.000000 0.000000 0.000000
					CHANNELS 3 Zrotation Yrotation Xrotation
					JOINT RightArm
					{
						OFFSET -3.136600 1.374050 -0.404650
						CHANNELS 3 Zrotation Yrotation Xrotation
						JOINT RightForeArm
						{
							OFFSET -5.241900 -0.000000 -0.000000
							CHANNELS 3 Zrotation Yrotation Xrotation
							JOINT RightHand
							{
								OFFSET -3.444170 -0.000000 -0.000000
								CHANNELS 3 Zrotation Yrotation Xrotation
								JOINT RightFingerBase
								{
									OFFSET 0.000000 0.000000 0.000000
									CHANNELS 3 Zrotation Yrotation Xrotation
									JOINT RightHandIndex1
									{
										OFFSET -0.622530 -0.000000 -0.000000
										CHANNELS 3 Zrotation Yrotation Xrotation
										End Site
										{
											OFFSET 0.000000 0.000000 0.000000
										}
									}
								}
								JOINT RThumb
								{
									OFFSET 0.000000 0.000000 0.000000
									CHANNELS 3 Zrotation Yrotation Xrotation
									End Site
									{
										OFFSET 0.000000 0.000000 0.000000
									}
								}
							}
						}
					}
				}
			}
		}
	}
}
MOTION
Frames: 4
Frame Time: 0.008333
-14.181937 16.097147 16.040991 -151.011577 87.484435 -134.845706 4.018695 -1.754060 -9.775078 -4.228465 -6.557635 2.231357 -0.980481 -0.146953 40.486329 -12.828920 9.491441 13.870438 -9.565297 19.328100 7.337114 17.157470 11.060966 -6.845471 -21.665668 -4.902006 -27.987374 4.213641 -17.132939 16.440582 7.805185 -0.929503 -5.492858 2.531525 -5.873028 2.275450 -10.594721 0.157707 19.946571 4.691503 -4.121572 -9.355976 4.461531 -4.221296 -2.023831 -3.086992 2.316717 -10.080529 0.710463 1.674868 7.875738 8.977133 -0.387580 10.995755 14.142685 -2.840429 2.414920 -80.152379 -27.159324 15.428091 171.033917 -69.862663 -167.114209 -24.364135 20.152563 -7.106715 0.000001 -0.000001 0.000002 -0.000000 0.000000 -0.000000 0.000000 0.000000 0.000000 -9.562090 3.998414 1.744150 68.311900 9.951782 6.904807 -10.401140 66.357630 -1.897160 6.702088 1.459495 0.396057 0.000000 -0.000000 0.000000 0.000000 -0.000000 -0.000000 0.000000 -0.000000 0.000000 
-13.873213 16.038739 16.226577 -148.040278 87.946593 -131.624473 3.913168 -1.320540 -9.662963 -4.837642 -8.376342 1.074793 -1.090784 0.870920 44.140966 -12.792486 9.323717 13.603705 -9.273227 19.009300 6.486429 17.017094 9.972217 -5.980664 -19.700102 -5.033087 -32.093259 1.998266 -16.420592 22.298185 6.007589 -0.413586 -6.787171 2.945554 -5.239961 4.534208 -11.072165 0.117702 19.156380 4.725513 -3.781108 -9.254900 4.326342 -3.961825 -1.847738 -2.809113 2.291827 -10.077546 0.835890 1.591991 7.973474 8.921790 -0.598871 10.925604 14.369533 -2.533779 2.269593 -79.436936 -25.826769 13.714750 171.932204 -70.839175 -168.899123 -23.293321 20.308972 -6.967465 0.000001 -0.000001 0.000002 -0.000000 -0.000000 -0.000000 -0.000000 0.000000 0.000000 -9.319535 4.181255 1.942616 67.669505 11.691315 6.234613 -9.179616 66.064424 -1.029906 6.589840 1.484824 0.397858 -0.000000 -0.000000 0.000000 -0.000000 -0.000000 -0.000000 -0.000000 -0.000000 0.000000 
-13.569910 15.968168 16.411411 -146.293513 88.025180 -129.755982 3.819415 -1.158667 -9.532870 -5.228420 -10.401369 -0.119486 -1.896659 1.622981 48.168642 -12.597893 9.347370 13.187657 -8.769358 17.114850 7.497317 16.689867 9.335977 -5.381578 -17.828788 -4.893479 -35.274143 -0.093229 -16.361270 28.454118 3.501621 -0.706645 -8.183414 1.091891 -4.189778 -0.948731 -11.346014 -0.032632 18.593542 4.799966 -3.470957 -9.168934 4.232910 -3.718836 -1.632141 -2.523775 2.246130 -10.100189 0.968505 1.480241 7.994942 8.878201 -0.934635 10.795053 14.539171 -2.095222 2.235645 -78.650672 -24.746417 11.830616 173.101374 -71.995543 -170.709435 -20.967390 20.083824 -6.462405 0.000001 -0.000001 0.000002 0.000000 0.000000 0.000000 -0.000000 -0.000000 0.000000 -9.069252 4.466279 2.031631 67.023087 13.473040 5.894428 -8.899865 65.616905 -0.064545 3.923190 2.051685 0.420379 -0.000000 0.000000 -0.000000 0.000000 0.000000 -0.000000 -0.000000 0.000000 -0.000000 
-13.267162 15.892042 16.596246 -142.397178 88.026910 -125.910185 3.782290 -0.923197 -9.312894 -5.514532 -12.063602 -1.321162 -2.270574 2.600746 51.903167 -12.834807 9.014812 13.306222 -8.752927 16.289715 8.766824 16.162287 9.136776 -5.093026 -15.706280 -4.963933 -37.363474 -1.779760 -15.740043 33.864087 0.434499 -1.768770 -9.171233 -1.583646 -3.608716 -9.217896 -11.492311 -0.166131 18.141817 4.822892 -3.057886 -9.030003 4.311161 -3.386681 -1.376474 -2.435986 2.216110 -10.160513 1.117897 1.425718 8.018347 8.651432 -1.148403 11.762796 14.596701 -1.840032 2.079310 -77.855890 -23.698831 9.992160 174.389124 -73.253600 -171.733516 -21.176924 18.568296 -5.974551 0.000001 -0.000001 0.000002 0.000000 0.000000 0.000000 0.000000 0.000000 -0.000000 -8.950086 4.432443 2.459911 66.256770 15.644885 4.689989 -6.860665 65.212391 0.789308 6.728302 1.951027 0.495575 0.000000 0.000000 0.000000 0.000000 0.000000 -0.000000 0.000000 0.000000 0.000000 
